<mxfile host="Electron" modified="2024-05-04T13:20:28.665Z" agent="Mozilla/5.0 (Macintosh; Intel Mac OS X 10_15_7) AppleWebKit/537.36 (KHTML, like Gecko) draw.io/21.6.8 Chrome/114.0.5735.289 Electron/25.5.0 Safari/537.36" etag="w_xLfY3hTNPaDbUHNNxu" version="21.6.8" type="device">
  <diagram name="第 1 页" id="zTxfFH-Mh4wLfErBWU_6">
    <mxGraphModel dx="1714" dy="1304" grid="1" gridSize="10" guides="1" tooltips="1" connect="1" arrows="1" fold="1" page="0" pageScale="1" pageWidth="827" pageHeight="1169" math="0" shadow="0">
      <root>
        <mxCell id="0" />
        <mxCell id="1" parent="0" />
        <mxCell id="V8ktmU8dFZhD05LDtESm-10" value="&lt;span style=&quot;font-size: 12px;&quot;&gt;基于工作流&lt;/span&gt;" style="fontStyle=0;verticalAlign=top;align=center;spacingTop=-2;fillColor=none;rounded=0;whiteSpace=wrap;html=1;strokeColor=#919191;strokeWidth=2;dashed=1;container=1;collapsible=0;expand=0;recursiveResize=0;fontSize=16;" vertex="1" parent="1">
          <mxGeometry x="-360" y="40" width="650" height="410" as="geometry" />
        </mxCell>
        <mxCell id="V8ktmU8dFZhD05LDtESm-46" value="&lt;span style=&quot;font-size: 12px;&quot;&gt;工作流程引擎&lt;/span&gt;" style="fontStyle=0;verticalAlign=top;align=center;spacingTop=-2;fillColor=#dae8fc;rounded=0;whiteSpace=wrap;html=1;strokeColor=#6c8ebf;strokeWidth=2;dashed=1;container=1;collapsible=0;expand=0;recursiveResize=0;fontFamily=Helvetica;fontSize=16;" vertex="1" parent="V8ktmU8dFZhD05LDtESm-10">
          <mxGeometry x="370" y="10" width="270" height="290" as="geometry" />
        </mxCell>
        <mxCell id="V8ktmU8dFZhD05LDtESm-38" value="&lt;font style=&quot;font-size: 12px;&quot;&gt;业务流程设计&lt;/font&gt;" style="rounded=1;whiteSpace=wrap;html=1;strokeColor=default;fontFamily=Helvetica;fontSize=16;fontColor=default;fillColor=default;" vertex="1" parent="V8ktmU8dFZhD05LDtESm-46">
          <mxGeometry x="115" y="40" width="120" height="30" as="geometry" />
        </mxCell>
        <mxCell id="V8ktmU8dFZhD05LDtESm-42" value="&lt;p style=&quot;line-height: 100%;&quot;&gt;&lt;font style=&quot;font-size: 12px;&quot;&gt;BPMN 2.0流程设计&lt;/font&gt;&lt;/p&gt;" style="rounded=1;whiteSpace=wrap;html=1;strokeColor=default;fontFamily=Helvetica;fontSize=16;fontColor=default;fillColor=default;" vertex="1" parent="V8ktmU8dFZhD05LDtESm-46">
          <mxGeometry x="115" y="115" width="120" height="60" as="geometry" />
        </mxCell>
        <mxCell id="V8ktmU8dFZhD05LDtESm-43" style="edgeStyle=orthogonalEdgeStyle;shape=connector;rounded=0;orthogonalLoop=1;jettySize=auto;html=1;entryX=0.5;entryY=0;entryDx=0;entryDy=0;labelBackgroundColor=default;strokeColor=default;fontFamily=Helvetica;fontSize=16;fontColor=default;endArrow=classic;startSize=8;endSize=8;" edge="1" parent="V8ktmU8dFZhD05LDtESm-46" source="V8ktmU8dFZhD05LDtESm-38" target="V8ktmU8dFZhD05LDtESm-42">
          <mxGeometry relative="1" as="geometry" />
        </mxCell>
        <mxCell id="V8ktmU8dFZhD05LDtESm-2" value="&lt;font style=&quot;font-size: 12px;&quot;&gt;接口&lt;/font&gt;" style="rounded=1;whiteSpace=wrap;html=1;fontSize=16;" vertex="1" parent="V8ktmU8dFZhD05LDtESm-46">
          <mxGeometry x="40" y="40" width="50" height="220" as="geometry" />
        </mxCell>
        <mxCell id="V8ktmU8dFZhD05LDtESm-27" value="2. 启用/处理流程节点" style="edgeStyle=none;shape=connector;curved=1;rounded=0;orthogonalLoop=1;jettySize=auto;html=1;entryX=0;entryY=0.5;entryDx=0;entryDy=0;labelBackgroundColor=default;strokeColor=default;fontFamily=Helvetica;fontSize=12;fontColor=default;endArrow=classic;startSize=8;endSize=8;exitX=1;exitY=0.5;exitDx=0;exitDy=0;" edge="1" parent="V8ktmU8dFZhD05LDtESm-10" source="V8ktmU8dFZhD05LDtESm-11" target="V8ktmU8dFZhD05LDtESm-2">
          <mxGeometry relative="1" as="geometry" />
        </mxCell>
        <mxCell id="V8ktmU8dFZhD05LDtESm-11" value="&lt;font style=&quot;font-size: 12px;&quot;&gt;业务A&lt;br&gt;业务逻辑&lt;br&gt;&lt;/font&gt;" style="rounded=1;whiteSpace=wrap;html=1;fontSize=16;" vertex="1" parent="V8ktmU8dFZhD05LDtESm-10">
          <mxGeometry x="170" y="30" width="120" height="60" as="geometry" />
        </mxCell>
        <mxCell id="V8ktmU8dFZhD05LDtESm-30" style="edgeStyle=none;shape=connector;curved=1;rounded=0;orthogonalLoop=1;jettySize=auto;html=1;entryX=0;entryY=0.5;entryDx=0;entryDy=0;labelBackgroundColor=default;strokeColor=default;fontFamily=Helvetica;fontSize=12;fontColor=default;endArrow=classic;startSize=8;endSize=8;" edge="1" parent="V8ktmU8dFZhD05LDtESm-10" source="V8ktmU8dFZhD05LDtESm-12" target="V8ktmU8dFZhD05LDtESm-2">
          <mxGeometry relative="1" as="geometry" />
        </mxCell>
        <mxCell id="V8ktmU8dFZhD05LDtESm-12" value="&lt;font style=&quot;font-size: 12px;&quot;&gt;业务B&lt;br&gt;业务逻辑&lt;br&gt;&lt;/font&gt;" style="rounded=1;whiteSpace=wrap;html=1;fontSize=16;" vertex="1" parent="V8ktmU8dFZhD05LDtESm-10">
          <mxGeometry x="170" y="110" width="120" height="60" as="geometry" />
        </mxCell>
        <mxCell id="V8ktmU8dFZhD05LDtESm-31" style="edgeStyle=none;shape=connector;curved=1;rounded=0;orthogonalLoop=1;jettySize=auto;html=1;entryX=0;entryY=0.5;entryDx=0;entryDy=0;labelBackgroundColor=default;strokeColor=default;fontFamily=Helvetica;fontSize=12;fontColor=default;endArrow=classic;startSize=8;endSize=8;" edge="1" parent="V8ktmU8dFZhD05LDtESm-10" source="V8ktmU8dFZhD05LDtESm-13" target="V8ktmU8dFZhD05LDtESm-2">
          <mxGeometry relative="1" as="geometry" />
        </mxCell>
        <mxCell id="V8ktmU8dFZhD05LDtESm-13" value="&lt;font style=&quot;font-size: 12px;&quot;&gt;业务C&lt;br&gt;业务逻辑&lt;br&gt;&lt;/font&gt;" style="rounded=1;whiteSpace=wrap;html=1;fontSize=16;" vertex="1" parent="V8ktmU8dFZhD05LDtESm-10">
          <mxGeometry x="170" y="200" width="120" height="60" as="geometry" />
        </mxCell>
        <mxCell id="V8ktmU8dFZhD05LDtESm-39" value="&lt;font style=&quot;font-size: 12px;&quot;&gt;3. 流程触发服务功能&lt;/font&gt;" style="edgeStyle=orthogonalEdgeStyle;shape=connector;rounded=0;orthogonalLoop=1;jettySize=auto;html=1;entryX=0.5;entryY=1;entryDx=0;entryDy=0;labelBackgroundColor=default;strokeColor=default;fontFamily=Helvetica;fontSize=16;fontColor=default;endArrow=classic;startSize=8;endSize=8;exitX=0.5;exitY=1;exitDx=0;exitDy=0;" edge="1" parent="V8ktmU8dFZhD05LDtESm-10" source="V8ktmU8dFZhD05LDtESm-2" target="V8ktmU8dFZhD05LDtESm-13">
          <mxGeometry relative="1" as="geometry">
            <Array as="points">
              <mxPoint x="435" y="310" />
              <mxPoint x="230" y="310" />
            </Array>
          </mxGeometry>
        </mxCell>
        <mxCell id="V8ktmU8dFZhD05LDtESm-21" value="1. 调用接口" style="edgeStyle=none;curved=1;rounded=0;orthogonalLoop=1;jettySize=auto;html=1;entryX=0;entryY=0.5;entryDx=0;entryDy=0;fontSize=12;startSize=8;endSize=8;" edge="1" parent="V8ktmU8dFZhD05LDtESm-10" source="V8ktmU8dFZhD05LDtESm-20" target="V8ktmU8dFZhD05LDtESm-11">
          <mxGeometry relative="1" as="geometry" />
        </mxCell>
        <mxCell id="V8ktmU8dFZhD05LDtESm-28" style="edgeStyle=none;shape=connector;curved=1;rounded=0;orthogonalLoop=1;jettySize=auto;html=1;labelBackgroundColor=default;strokeColor=default;fontFamily=Helvetica;fontSize=12;fontColor=default;endArrow=classic;startSize=8;endSize=8;" edge="1" parent="V8ktmU8dFZhD05LDtESm-10" source="V8ktmU8dFZhD05LDtESm-20" target="V8ktmU8dFZhD05LDtESm-12">
          <mxGeometry relative="1" as="geometry" />
        </mxCell>
        <mxCell id="V8ktmU8dFZhD05LDtESm-29" style="edgeStyle=none;shape=connector;curved=1;rounded=0;orthogonalLoop=1;jettySize=auto;html=1;entryX=0;entryY=0.5;entryDx=0;entryDy=0;labelBackgroundColor=default;strokeColor=default;fontFamily=Helvetica;fontSize=12;fontColor=default;endArrow=classic;startSize=8;endSize=8;" edge="1" parent="V8ktmU8dFZhD05LDtESm-10" source="V8ktmU8dFZhD05LDtESm-20" target="V8ktmU8dFZhD05LDtESm-13">
          <mxGeometry relative="1" as="geometry" />
        </mxCell>
        <mxCell id="V8ktmU8dFZhD05LDtESm-20" value="&lt;font style=&quot;font-size: 12px;&quot;&gt;Actor&lt;/font&gt;" style="shape=umlActor;verticalLabelPosition=bottom;verticalAlign=top;html=1;outlineConnect=0;fontSize=16;" vertex="1" parent="V8ktmU8dFZhD05LDtESm-10">
          <mxGeometry x="20" y="110" width="30" height="60" as="geometry" />
        </mxCell>
        <mxCell id="V8ktmU8dFZhD05LDtESm-36" value="&lt;span style=&quot;font-size: 12px;&quot;&gt;业务专注于处理业务数据，流程引擎处理流程数据。基于流程对业务功能的编排，处理业务异常，流程与流程之间的关系。时时刻刻都能直观的表达业务的形态。&lt;/span&gt;" style="html=1;shadow=0;dashed=0;shape=mxgraph.bootstrap.rrect;rSize=5;strokeColor=#d6b656;strokeWidth=1;fillColor=#fff2cc;whiteSpace=wrap;align=left;verticalAlign=middle;spacingLeft=10;fontSize=14;spacing=10;" vertex="1" parent="V8ktmU8dFZhD05LDtESm-10">
          <mxGeometry x="20" y="330" width="610" height="65" as="geometry" />
        </mxCell>
        <mxCell id="V8ktmU8dFZhD05LDtESm-37" value="&lt;font style=&quot;font-size: 12px;&quot;&gt;流程数据&lt;/font&gt;" style="shape=cylinder3;whiteSpace=wrap;html=1;boundedLbl=1;backgroundOutline=1;size=15;rounded=1;strokeColor=default;fontFamily=Helvetica;fontSize=16;fontColor=default;fillColor=default;" vertex="1" parent="V8ktmU8dFZhD05LDtESm-10">
          <mxGeometry x="500" y="220" width="90" height="50" as="geometry" />
        </mxCell>
        <mxCell id="V8ktmU8dFZhD05LDtESm-44" style="edgeStyle=orthogonalEdgeStyle;shape=connector;rounded=0;orthogonalLoop=1;jettySize=auto;html=1;labelBackgroundColor=default;strokeColor=default;fontFamily=Helvetica;fontSize=16;fontColor=default;endArrow=classic;startSize=8;endSize=8;" edge="1" parent="V8ktmU8dFZhD05LDtESm-10" source="V8ktmU8dFZhD05LDtESm-42" target="V8ktmU8dFZhD05LDtESm-37">
          <mxGeometry relative="1" as="geometry" />
        </mxCell>
        <mxCell id="V8ktmU8dFZhD05LDtESm-6" value="&lt;font style=&quot;font-size: 12px;&quot;&gt;传统方式&lt;/font&gt;" style="fontStyle=0;verticalAlign=top;align=center;spacingTop=-2;fillColor=none;rounded=0;whiteSpace=wrap;html=1;strokeColor=#919191;strokeWidth=2;dashed=1;container=1;collapsible=0;expand=0;recursiveResize=0;fontSize=16;" vertex="1" parent="1">
          <mxGeometry x="-360" y="-270" width="650" height="290" as="geometry" />
        </mxCell>
        <mxCell id="V8ktmU8dFZhD05LDtESm-1" value="&lt;span style=&quot;font-size: 12px;&quot;&gt;业务A&lt;br&gt;流程控制&lt;br&gt;业务逻辑&lt;br&gt;&lt;/span&gt;" style="rounded=1;whiteSpace=wrap;html=1;fontSize=16;" vertex="1" parent="V8ktmU8dFZhD05LDtESm-6">
          <mxGeometry x="230" y="30" width="120" height="60" as="geometry" />
        </mxCell>
        <mxCell id="V8ktmU8dFZhD05LDtESm-4" value="&lt;font style=&quot;font-size: 12px;&quot;&gt;业务B&lt;br&gt;流程控制&lt;br style=&quot;border-color: var(--border-color);&quot;&gt;业务逻辑&lt;/font&gt;" style="rounded=1;whiteSpace=wrap;html=1;fontSize=16;" vertex="1" parent="V8ktmU8dFZhD05LDtESm-6">
          <mxGeometry x="230" y="100" width="120" height="60" as="geometry" />
        </mxCell>
        <mxCell id="V8ktmU8dFZhD05LDtESm-5" value="&lt;font style=&quot;font-size: 12px;&quot;&gt;&lt;font style=&quot;font-size: 12px;&quot;&gt;业务C&lt;br&gt;流程&lt;/font&gt;控制&lt;br style=&quot;border-color: var(--border-color);&quot;&gt;业务逻辑&lt;/font&gt;" style="rounded=1;whiteSpace=wrap;html=1;fontSize=16;" vertex="1" parent="V8ktmU8dFZhD05LDtESm-6">
          <mxGeometry x="230" y="180" width="120" height="60" as="geometry" />
        </mxCell>
        <mxCell id="V8ktmU8dFZhD05LDtESm-16" value="调用接口" style="edgeStyle=none;curved=1;rounded=0;orthogonalLoop=1;jettySize=auto;html=1;entryX=0;entryY=0.5;entryDx=0;entryDy=0;fontSize=12;startSize=8;endSize=8;" edge="1" parent="V8ktmU8dFZhD05LDtESm-6" source="V8ktmU8dFZhD05LDtESm-15" target="V8ktmU8dFZhD05LDtESm-1">
          <mxGeometry relative="1" as="geometry" />
        </mxCell>
        <mxCell id="V8ktmU8dFZhD05LDtESm-17" value="调用接口" style="edgeStyle=none;curved=1;rounded=0;orthogonalLoop=1;jettySize=auto;html=1;fontSize=12;startSize=8;endSize=8;" edge="1" parent="V8ktmU8dFZhD05LDtESm-6" source="V8ktmU8dFZhD05LDtESm-15" target="V8ktmU8dFZhD05LDtESm-4">
          <mxGeometry relative="1" as="geometry" />
        </mxCell>
        <mxCell id="V8ktmU8dFZhD05LDtESm-18" value="调用接口" style="edgeStyle=none;curved=1;rounded=0;orthogonalLoop=1;jettySize=auto;html=1;entryX=0;entryY=0.5;entryDx=0;entryDy=0;fontSize=12;startSize=8;endSize=8;" edge="1" parent="V8ktmU8dFZhD05LDtESm-6" source="V8ktmU8dFZhD05LDtESm-15" target="V8ktmU8dFZhD05LDtESm-5">
          <mxGeometry relative="1" as="geometry" />
        </mxCell>
        <mxCell id="V8ktmU8dFZhD05LDtESm-15" value="&lt;font style=&quot;font-size: 12px;&quot;&gt;Actor&lt;/font&gt;" style="shape=umlActor;verticalLabelPosition=bottom;verticalAlign=top;html=1;outlineConnect=0;fontSize=16;" vertex="1" parent="V8ktmU8dFZhD05LDtESm-6">
          <mxGeometry x="20" y="100" width="30" height="60" as="geometry" />
        </mxCell>
        <mxCell id="V8ktmU8dFZhD05LDtESm-19" value="&lt;font style=&quot;font-size: 12px;&quot;&gt;业务数据与流程数据交织在一起，通过控制数据状态来流转数据。&lt;/font&gt;" style="html=1;shadow=0;dashed=0;shape=mxgraph.bootstrap.rrect;rSize=5;strokeColor=#d6b656;strokeWidth=1;fillColor=#fff2cc;whiteSpace=wrap;align=left;verticalAlign=middle;spacingLeft=10;fontSize=14;spacing=10;" vertex="1" parent="V8ktmU8dFZhD05LDtESm-6">
          <mxGeometry x="380" y="62.5" width="140" height="135" as="geometry" />
        </mxCell>
      </root>
    </mxGraphModel>
  </diagram>
</mxfile>
